<?xml version="1.0" encoding="utf-8"?>
<!-- Generator: Adobe Illustrator 16.0.0, SVG Export Plug-In . SVG Version: 6.00 Build 0)  -->
<!DOCTYPE svg PUBLIC "-//W3C//DTD SVG 1.1//EN" "http://www.w3.org/Graphics/SVG/1.1/DTD/svg11.dtd">
<svg version="1.1" id="Calque_1" xmlns="http://www.w3.org/2000/svg" xmlns:xlink="http://www.w3.org/1999/xlink" x="0px" y="0px"
	 width="396.521px" height="18.874px" viewBox="0 0 396.521 18.874" style="enable-background:new 0 0 396.521 18.874;"
	 xml:space="preserve">
<linearGradient id="SVGID_1_" gradientUnits="userSpaceOnUse" x1="-2.2627" y1="11.9009" x2="388.0234" y2="11.9009" gradientTransform="matrix(-0.9958 0 0 1 391.458 0)">
	<stop  offset="0" style="stop-color:#41963C"/>
	<stop  offset="1" style="stop-color:#B8FA7C"/>
</linearGradient>
<path style="fill:url(#SVGID_1_);" d="M20.548,9.716c-4.481,0-11.496,1.528-14.646-0.361c-3.153-1.889,3.318,0.352,9.79-2.481
	c6.142-1.167,54.767,0.833,70.036-0.833c15.269-1.667,61.572,0.333,79.496,1.5c17.924,1.167,77.67,0.393,102.066-2.137
	c25.06-1.03,28.047,2.137,52.609,0.97c8.298,0.667,19.583,0.641,30.537-1.18c4.149-1.154,15.269,1.846,20.911,1.513
	s22.238-3.626,22.238,1.021s2.821,10.479-18.089,9.979c-20.911-0.5-26.721-2.939-52.776,0.03c-6.638,0.97-29.541-2.363-45.473-1.697
	s-67.213,2.833-73.354,2.833c-6.141,0-66.882-4.167-84.308-3.833s-33.025,0-43.481,0.5c-10.455,0.5-38.006-3.167-45.805-2.333
	c-7.801,0.833-9.792,0-13.94,0.333c-4.15,0.333-10.291,0.5-10.456-0.5c-0.167-1-0.541-0.829,4.812-1.139
	C16.067,11.591,20.548,9.716,20.548,9.716z"/>
</svg>
