<?xml version="1.0" encoding="utf-8"?>
<!-- Generator: Adobe Illustrator 16.0.0, SVG Export Plug-In . SVG Version: 6.00 Build 0)  -->
<!DOCTYPE svg PUBLIC "-//W3C//DTD SVG 1.1//EN" "http://www.w3.org/Graphics/SVG/1.1/DTD/svg11.dtd">
<svg version="1.1" id="Calque_1" xmlns="http://www.w3.org/2000/svg" xmlns:xlink="http://www.w3.org/1999/xlink" x="0px" y="0px"
	 width="398.909px" height="19.546px" viewBox="0 0 398.909 19.546" style="enable-background:new 0 0 398.909 19.546;"
	 xml:space="preserve">
<linearGradient id="SVGID_1_" gradientUnits="userSpaceOnUse" x1="4.1211" y1="12.5732" x2="394.4087" y2="12.5732">
	<stop  offset="0" style="stop-color:#41963C"/>
	<stop  offset="1" style="stop-color:#B8FA7C"/>
</linearGradient>
<path style="fill:url(#SVGID_1_);" d="M378.873,10.388c4.5,0,11.544,1.528,14.709-0.361c3.166-1.889-3.333,0.352-9.833-2.481
	c-6.167-1.167-55,0.833-70.333-0.833c-15.334-1.667-61.834,0.333-79.834,1.5s-78,0.393-102.5-2.137
	c-25.167-1.03-28.166,2.137-52.833,0.97c-8.333,0.667-19.667,0.641-30.667-1.18c-4.167-1.154-15.333,1.846-21,1.513
	S4.249,3.753,4.249,8.399s-2.833,10.479,18.167,9.979s26.833-2.939,53,0.03c6.667,0.97,29.667-2.363,45.667-1.697
	s67.5,2.833,73.667,2.833s67.167-4.167,84.667-3.833c17.5,0.333,33.166,0,43.666,0.5s38.168-3.167,46-2.333
	c7.834,0.833,9.834,0,14,0.333c4.167,0.333,10.334,0.5,10.5-0.5c0.167-1,0.543-0.829-4.833-1.139S378.873,10.388,378.873,10.388z"/>
</svg>
